<?xml version="1.0" encoding="UTF-8" standalone="no"?>
<svg
   enable-background="new 1.664 2.125 1052.938 640.445"
   height="600"
   viewBox="1.664 2.125 1000 599.99999"
   width="1000"
   version="1.1"
   id="svg14071"
   xml:space="preserve"
   xmlns="http://www.w3.org/2000/svg"
   xmlns:svg="http://www.w3.org/2000/svg"><defs
     id="defs14075" /><path
     d="m 1.664,2.125 h 1000 v 600.00002 h -1000 z"
     fill="#feffff"
     id="path17428"
     style="fill:#ffffff;stroke:none;stroke-width:0.942828" /><path
     d="m 1.664,2.125 h 200 v 600.00002 h -200 z"
     fill="#de1818"
     stroke-width="0.979613"
     id="path16696" /><path
     d="m 801.664,2.125 h 200 v 600.00002 h -200 z"
     fill="#de1818"
     stroke-width="0.979613"
     id="path18900"
     style="fill:#036638;fill-opacity:1" /><g
     id="g15666"
     transform="matrix(1.5658044,0,0,1.5658044,356.664,143.24643)"><path
       style="font-variation-settings:normal;vector-effect:none;fill:#dfc300;fill-opacity:1;stroke:none;stroke-width:0.39757;stroke-linecap:butt;stroke-linejoin:miter;stroke-miterlimit:4;stroke-dasharray:none;stroke-dashoffset:0;stroke-opacity:1;-inkscape-stroke:none;stop-color:#000000"
       d="m 0,0 v 87.690245 c 0,51.394295 19.819021,71.617555 37.748561,85.648455 17.92954,14.03091 43.402422,19.51789 54.8556,29.59671 11.453169,-10.07882 36.926059,-15.5658 54.855569,-29.59671 17.92954,-14.0309 37.74859,-34.25416 37.74859,-85.648455 V 3e-6 Z"
       id="path1740" /><path
       style="font-variation-settings:normal;vector-effect:none;fill:#00248d;fill-opacity:1;stroke:none;stroke-width:0.39757;stroke-linecap:butt;stroke-linejoin:miter;stroke-miterlimit:4;stroke-dasharray:none;stroke-dashoffset:0;stroke-opacity:1;-inkscape-stroke:none;stop-color:#000000"
       d="m 4.590158,92.313505 c 1.15573,42.534495 18.592413,63.065835 35.839573,76.539615 17.84849,13.94362 41.280202,18.79153 52.17374,28.36146 10.893549,-9.56993 34.326749,-14.41784 52.175309,-28.36146 17.24711,-13.47378 34.68384,-34.00512 35.83957,-76.539615 z"
       id="path1833" /><path
       style="font-variation-settings:normal;vector-effect:none;fill:#ffffff;fill-opacity:1;stroke:none;stroke-width:0.39757;stroke-linecap:butt;stroke-linejoin:miter;stroke-miterlimit:4;stroke-dasharray:none;stroke-dashoffset:0;stroke-opacity:1;-inkscape-stroke:none;stop-color:#000000"
       d="M 4.524933,4.525279 V 87.787985 H 180.68355 V 4.525279 Z"
       id="path1742" /><g
       id="g7078"
       transform="matrix(3.0051905,0,0,3.0051905,-260.76966,-251.36771)"><path
         style="color:#000000;opacity:1;fill:#de1818;fill-opacity:1;stroke:none;stroke-width:0.132292;stroke-dasharray:none"
         d="m 120.73633,87.123047 v 0.46289 11.417969 c 0,6.555294 5.32361,11.878904 11.8789,11.878904 6.5553,0 11.88086,-5.32361 11.88086,-11.878904 V 87.123047 Z"
         id="path1839" /><path
         id="rect1959"
         style="opacity:1;fill:#ffffff;fill-rule:evenodd;stroke:none;stroke-width:0.132292;stroke-miterlimit:10;stroke-dasharray:none;stop-color:#000000"
         d="m 126.04398,88.048888 v 4.381645 h 4.38165 v -4.381645 z m 4.38165,4.381645 v 4.381644 h 4.38164 v -4.381644 z m 4.38164,0 h 4.38165 v -4.381645 h -4.38165 z m 4.38165,0 v 4.381644 h 4.38164 v -4.381644 z m 0,4.381644 h -4.38165 v 4.381643 h 4.38165 z m 0,4.381643 v 4.38165 h 2.1947 c 0.95577,-1.27341 1.63989,-2.76251 1.96783,-4.38165 z m 0,4.38165 h -4.38165 v 4.16253 c 1.61909,-0.32811 3.10819,-1.01267 4.38165,-1.96835 z m -4.38165,0 v -4.38165 h -4.38164 v 4.38165 z m -4.38164,0 h -4.38165 v 2.19521 c 1.27354,0.95561 2.76232,1.64006 4.38165,1.96784 z m -4.38165,0 v -4.38165 h -4.16305 c 0.32782,1.61914 1.01181,3.10824 1.96732,4.38165 z m 0,-4.38165 h 4.38165 v -4.381643 h -4.38165 z m 0,-4.381643 v -4.381644 h -4.38164 v 4.381644 z" /></g><g
       id="g2335"
       transform="matrix(3.0051905,0,0,3.0051905,-261.5771,-250.80885)"><path
         id="path2061"
         style="fill:#ffffff;fill-rule:evenodd;stroke-width:0.132293;stroke-miterlimit:10;stop-color:#000000"
         d="m 115.0538,118.94281 1.4706,-0.76915 -0.0693,-1.65813 1.40139,0.88899 1.40139,-0.88899 -0.0692,1.65813 1.47059,0.76915 -1.47059,0.76914 0.0692,1.65816 -1.40139,-0.88901 -1.40139,0.88901 0.0693,-1.65816 z" /><path
         id="use2272"
         style="fill:#ffffff;fill-rule:evenodd;stroke-width:0.132293;stroke-miterlimit:10;stop-color:#000000"
         d="m 115.0538,141.10917 1.4706,0.76915 -0.0693,1.65813 1.40139,-0.88899 1.40139,0.88899 -0.0692,-1.65813 1.47059,-0.76915 -1.47059,-0.76914 0.0692,-1.65816 -1.40139,0.88901 -1.40139,-0.88901 0.0693,1.65816 z" /><path
         id="path2291"
         style="fill:#ffffff;fill-rule:evenodd;stroke-width:0.132293;stroke-miterlimit:10;stop-color:#000000"
         d="m 109.07455,122.70692 0.73764,-1.48665 -1.03069,-1.30073 1.65629,-0.1045 0.61121,-1.54293 0.91864,1.38213 1.64183,-0.24213 -0.73765,1.48663 1.03063,1.30081 -1.6563,0.10449 -0.6112,1.54294 -0.91857,-1.38221 z" /><path
         id="use2293"
         style="fill:#ffffff;fill-rule:evenodd;stroke-width:0.132293;stroke-miterlimit:10;stop-color:#000000"
         d="m 122.10361,140.63988 1.64183,-0.24214 0.91856,1.38219 0.61121,-1.54293 1.65629,-0.10451 -1.03061,-1.30078 0.73764,-1.48664 -1.64183,0.24214 -0.91865,-1.38215 -0.6112,1.54294 -1.6563,0.10449 1.03071,1.30074 z" /><path
         id="path2297"
         style="fill:#ffffff;fill-rule:evenodd;stroke-width:0.132293;stroke-miterlimit:10;stop-color:#000000"
         d="m 106.44972,129.26666 -0.27707,-1.6363 -1.59839,-0.44648 1.27853,-1.05809 -0.41242,-1.60752 1.55559,0.57821 1.18594,-1.16094 0.27706,1.6363 1.59839,0.44658 -1.27856,1.05808 0.41245,1.60752 -1.55559,-0.5783 z" /><path
         id="use2299"
         style="fill:#ffffff;fill-rule:evenodd;stroke-width:0.132293;stroke-miterlimit:10;stop-color:#000000"
         d="m 127.53117,136.11644 1.18595,-1.16094 1.55556,0.5783 -0.41243,-1.60751 1.27854,-1.05809 -1.59836,-0.44658 -0.27707,-1.63629 -1.18593,1.16093 -1.55562,-0.57821 0.41244,1.60752 -1.27855,1.05808 1.59842,0.44649 z" /><path
         id="path2303"
         style="fill:#ffffff;fill-rule:evenodd;stroke-width:0.132293;stroke-miterlimit:10;stop-color:#000000"
         d="m 108.1819,136.11645 -1.18594,-1.16095 -1.55556,0.5783 0.41242,-1.60751 -1.27853,-1.05809 1.59836,-0.44658 0.27707,-1.63629 1.18593,1.16093 1.55562,-0.57821 -0.41244,1.60752 1.27855,1.05808 -1.59842,0.44649 z" /><path
         id="use2305"
         style="fill:#ffffff;fill-rule:evenodd;stroke-width:0.132293;stroke-miterlimit:10;stop-color:#000000"
         d="m 129.26337,129.26666 0.27706,-1.6363 1.59839,-0.44648 -1.27853,-1.05809 0.41242,-1.60752 -1.55559,0.57821 -1.18594,-1.16094 -0.27706,1.6363 -1.59839,0.44658 1.27856,1.05808 -0.41245,1.60752 1.55559,-0.5783 z" /><path
         id="path2309"
         style="fill:#ffffff;fill-rule:evenodd;stroke-width:0.132293;stroke-miterlimit:10;stop-color:#000000"
         d="m 113.60947,140.63988 -1.64183,-0.24214 -0.91856,1.38219 -0.61121,-1.54293 -1.65629,-0.10451 1.03061,-1.30078 -0.73764,-1.48664 1.64183,0.24214 0.91865,-1.38215 0.6112,1.54294 1.6563,0.10449 -1.03071,1.30075 z" /><path
         id="use2311"
         style="fill:#ffffff;fill-rule:evenodd;stroke-width:0.132293;stroke-miterlimit:10;stop-color:#000000"
         d="m 126.63853,122.70692 -0.73764,-1.48665 1.03069,-1.30073 -1.65629,-0.10451 -0.61121,-1.54292 -0.91864,1.38213 -1.64183,-0.24214 0.73764,1.48664 -1.03062,1.30081 1.65629,0.10449 0.61121,1.54294 0.91857,-1.38221 z" /></g><g
       id="g7084"
       transform="matrix(3.0051905,0,0,3.0051905,-260.76966,-251.03632)"><path
         style="font-variation-settings:normal;opacity:1;fill:#036638;fill-opacity:1;stroke:#dfc300;stroke-width:0.926042;stroke-linecap:butt;stroke-linejoin:miter;stroke-miterlimit:4;stroke-dasharray:none;stroke-dashoffset:0;stroke-opacity:1;stop-color:#000000;stop-opacity:1"
         d="m 91.142642,87.475797 v 9.721 c 0,6.503923 4.19512,11.257633 11.416348,13.771393 7.22124,-2.51376 11.41635,-7.26747 11.41635,-13.771393 v -9.721 z"
         id="path1837" /><path
         id="path3073"
         style="font-variation-settings:normal;opacity:1;vector-effect:none;fill:#dfc300;fill-opacity:1;stroke:none;stroke-width:0.132292;stroke-linecap:butt;stroke-linejoin:miter;stroke-miterlimit:4;stroke-dasharray:none;stroke-dashoffset:0;stroke-opacity:1;-inkscape-stroke:none;stop-color:#000000;stop-opacity:1"
         d="m 102.55906,89.025816 c -0.42186,1.009888 -1.36176,1.352536 -2.33681,2.98173 -0.97505,1.629196 -0.861553,3.030713 0.23823,5.864759 0.88815,2.288715 1.22017,4.034855 1.31671,4.630205 h -0.20877 c -0.30868,-1.0608 -0.98663,-2.623751 -2.49287,-3.554819 -1.506454,-0.931202 -4.245405,-0.756426 -4.765601,1.189589 -0.520192,1.94603 1.174612,3.20175 2.492354,3.80132 -0.07845,-0.8131 0.0096,-2.54888 0.884701,-2.94556 0.875016,-0.39667 1.817894,0.0724 2.517676,1.00511 0.11755,0.15668 0.22236,0.32655 0.31574,0.50436 h -1.14463 c -0.276199,0 -0.498161,0.22248 -0.498161,0.49868 0,0.2762 0.221962,0.49868 0.498161,0.49868 h 1.35134 c 0.22238,0.31052 0.42126,0.59131 0.49299,0.81855 0.0873,0.27644 -0.20283,0.75939 -0.60461,1.16117 0,0.2055 0.41357,0.37663 0.83457,0.42323 -0.0315,0.22149 -0.0706,0.50591 -0.0724,0.61237 -0.003,0.16181 0.55903,0.83508 1.18133,1.07538 0.6223,-0.2403 1.1838,-0.91357 1.1808,-1.07538 -0.002,-0.10646 -0.0409,-0.39088 -0.0723,-0.61237 0.42117,-0.0465 0.83509,-0.21765 0.83509,-0.42323 -0.40178,-0.40178 -0.69243,-0.88473 -0.60513,-1.16117 0.0718,-0.22724 0.27061,-0.50803 0.49299,-0.81855 h 1.35186 c 0.2762,0 0.49816,-0.22248 0.49816,-0.49868 0,-0.2762 -0.22196,-0.49868 -0.49816,-0.49868 h -1.14515 c 0.0933,-0.17782 0.19818,-0.34767 0.31574,-0.50436 0.69979,-0.93275 1.64317,-1.40178 2.51819,-1.00511 0.87456,0.39668 0.96259,2.13246 0.88419,2.94556 1.31773,-0.59957 3.01255,-1.85529 2.49235,-3.80132 -0.52018,-1.946015 -3.25914,-2.120791 -4.7656,-1.189589 -1.50623,0.931068 -2.18419,2.494019 -2.49287,3.554819 h -0.20877 c 0.0967,-0.59535 0.42907,-2.34149 1.31723,-4.630205 1.09978,-2.834046 1.21329,-4.235563 0.23823,-5.864759 -0.97505,-1.629194 -1.91495,-1.971842 -2.33681,-2.98173 z" /></g></g></svg>
